<svg width="19" height="19" fill="none" xmlns="http://www.w3.org/2000/svg"><path d="M9.87 11.385c0-2.813 2.287-5.1 5.1-5.1 1.461 0 2.781.617 3.712 1.606a4.86 4.86 0 00-7.977-5.168L9.5 3.928 8.295 2.723A4.827 4.827 0 004.86 1.3a4.827 4.827 0 00-3.436 1.423A4.828 4.828 0 000 6.159c0 1.298.505 2.518 1.422 3.435L9.47 17.7l2.322-2.329a5.094 5.094 0 01-1.924-3.987z" fill="#B3B3B3"/><path d="M14.97 7.36a4.029 4.029 0 00-4.025 4.025 4.029 4.029 0 004.025 4.024 4.03 4.03 0 004.024-4.024A4.029 4.029 0 0014.97 7.36zm1.513 4.581h-.957v.957h-1.113v-.957h-.956v-1.113h.956v-.956h1.113v.956h.957v1.113z" fill="#B3B3B3"/></svg>