<svg width="20" height="20" fill="none" xmlns="http://www.w3.org/2000/svg"><g clip-path="url(#clip0)" fill="#B3B3B3"><path d="M6.067 2.232c-2.013 0-3.651 1.737-3.651 3.871s1.638 3.87 3.65 3.87c2.013 0 3.651-1.736 3.651-3.87 0-2.134-1.637-3.87-3.65-3.87zm8.301.554h-.025a3.028 3.028 0 00-2.222 1.005 3.398 3.398 0 00-.885 2.338c.008.878.335 1.703.923 2.323a3.03 3.03 0 002.213.968h.026a3.029 3.029 0 002.221-1.005 3.4 3.4 0 00.885-2.338c-.015-1.82-1.42-3.29-3.136-3.29zm.152 7.633h-.302a5.46 5.46 0 00-3.673 1.416 7.064 7.064 0 012.752 5.23H20v-1.168a5.485 5.485 0 00-5.48-5.478zm-2.397 6.068a5.876 5.876 0 00-2.36-4.351 5.858 5.858 0 00-3.513-1.163h-.365A5.885 5.885 0 000 16.858v.698h12.135v-.698c0-.125-.004-.249-.012-.371z"/></g><defs><clipPath id="clip0"><path fill="#fff" d="M0 0h20v20H0z"/></clipPath></defs></svg>