<svg width="22" height="22" fill="none" xmlns="http://www.w3.org/2000/svg"><path d="M12.865 18.605a3.395 3.395 0 106.79 0 3.395 3.395 0 00-6.79 0zm5.05-.644v1.289h-1.01v1.01h-1.29v-1.01h-1.01v-1.29h1.01v-1.009h1.29v1.01h1.01z" fill="#B3B3B3"/><path d="M12.947 15.294a4.653 4.653 0 013.312-1.372c.278 0 .553.024.822.071A7.437 7.437 0 0012.34 8.3a4.545 4.545 0 001.983-3.753A4.552 4.552 0 009.776 0a4.552 4.552 0 00-4.547 4.546c0 1.557.787 2.933 1.984 3.753-2.828 1.046-4.85 3.769-4.85 6.956v2.99h9.226a4.65 4.65 0 011.358-2.951z" fill="#B3B3B3"/></svg>