<svg width="19" height="19" fill="none" xmlns="http://www.w3.org/2000/svg"><g clip-path="url(#clip0)"><path d="M18.993 6.203c-.135-2.863-2.352-5.123-5-5.144h-.04c-2.447 0-3.811 1.796-4.453 3.009-.641-1.213-2.006-3.01-4.454-3.01h-.038C2.358 1.08.142 3.34.007 6.204c-.166 3.512 2.636 5.868 6.821 9.434.725.618 1.496 1.275 2.306 1.983l.366.321.366-.32c.81-.71 1.581-1.366 2.306-1.984 4.185-3.566 6.987-5.922 6.821-9.434z" fill="#B3B3B3"/></g><defs><clipPath id="clip0"><path fill="#fff" d="M0 0h19v19H0z"/></clipPath></defs></svg>