<svg width="19" height="19" fill="none" xmlns="http://www.w3.org/2000/svg"><g clip-path="url(#clip0)" fill="#B3B3B3"><path d="M13.205 2.399L6.872.024a.44.44 0 00-.285 0L.253 2.399A.397.397 0 000 2.77v5.09c0 7.22 6.579 8.74 6.642 8.756.032.008.055.008.087.008.032 0 .056 0 .087-.008.016 0 .325-.071.8-.253a6.626 6.626 0 01-.491-2.51 6.738 6.738 0 016.333-6.721V2.77a.397.397 0 00-.253-.372z"/><path d="M13.855 8.708a5.152 5.152 0 00-5.146 5.146A5.152 5.152 0 0013.855 19 5.152 5.152 0 0019 13.854a5.152 5.152 0 00-5.146-5.146zm0 1.583c.696 0 1.34.208 1.889.554l-4.897 4.898a3.532 3.532 0 01-.555-1.89 3.567 3.567 0 013.563-3.562zm0 7.125c-.696 0-1.34-.208-1.89-.554l4.899-4.897c.346.549.554 1.193.554 1.889 0 1.964-1.6 3.562-3.563 3.562z"/></g><defs><clipPath id="clip0"><path fill="#fff" d="M0 0h19v19H0z"/></clipPath></defs></svg>