<svg width="61" height="61" fill="none" xmlns="http://www.w3.org/2000/svg"><g clip-path="url(#clip0)" fill="#fff"><path d="M53.847 21.243c.494 0 .894-.4.894-.894v-8.632a3.305 3.305 0 00-3.133-3.307C41.011 7.87 35.316 3.536 32.864 1a3.26 3.26 0 00-2.365-1c-.9 0-1.74.355-2.364 1-2.452 2.536-8.148 6.87-18.745 7.41a3.305 3.305 0 00-3.132 3.307v24.914c0 7.175 3.86 13.861 10.075 17.45l10.11 5.835A8.11 8.11 0 0030.498 61a8.11 8.11 0 004.057-1.084l10.11-5.836A20.206 20.206 0 0054.74 36.63V24.52a.894.894 0 10-1.787 0v12.11a18.414 18.414 0 01-9.182 15.903l-10.11 5.835a6.342 6.342 0 01-6.326 0l-10.11-5.835a18.414 18.414 0 01-9.18-15.903V11.717c0-.812.63-1.481 1.436-1.522 11.21-.571 17.304-5.227 19.939-7.952a1.488 1.488 0 011.08-.456c.411 0 .794.162 1.079.456 2.635 2.725 8.729 7.38 19.938 7.952.806.04 1.436.71 1.436 1.522v8.632c0 .494.4.894.894.894z"/><path d="M11.966 23.626c-.494 0-.894.4-.894.893v12.112a15.38 15.38 0 007.667 13.28l10.11 5.836c.502.29 1.073.443 1.65.443.578 0 1.148-.154 1.65-.443l10.11-5.836a15.38 15.38 0 007.667-13.28V15.01a2.097 2.097 0 00-1.83-2.08c-8.015-1.008-13.288-4.053-16.3-6.43a2.09 2.09 0 00-2.594 0c-3.012 2.377-8.284 5.422-16.298 6.43a2.097 2.097 0 00-1.832 2.08v5.338a.894.894 0 101.788 0V15.01c0-.155.114-.287.266-.306 8.423-1.06 13.993-4.282 17.182-6.799a.307.307 0 01.381 0c3.19 2.517 8.76 5.74 17.184 6.8.151.018.266.15.266.305v21.62c0 4.825-2.596 9.32-6.774 11.733L31.256 54.2a1.536 1.536 0 01-1.513 0l-10.11-5.835A13.588 13.588 0 0112.86 36.63V24.519c0-.493-.4-.893-.894-.893z"/><path d="M19.666 28.403c.726 0 1.408.283 1.921.796l4.67 4.668a.893.893 0 001.263 0l5.115-5.115a.894.894 0 10-1.264-1.264l-4.483 4.483-4.037-4.036a4.474 4.474 0 00-3.185-1.319 4.474 4.474 0 00-3.184 1.319 4.476 4.476 0 00-1.32 3.186c0 1.203.469 2.334 1.32 3.184l7.22 7.221a4.471 4.471 0 003.186 1.32 4.47 4.47 0 003.184-1.32l14.443-14.442a4.473 4.473 0 001.32-3.185 4.476 4.476 0 00-1.32-3.186 4.474 4.474 0 00-3.184-1.318 4.475 4.475 0 00-3.185 1.319l-3.826 3.825a.894.894 0 001.264 1.264l3.826-3.826a2.698 2.698 0 011.92-.795c.727 0 1.409.282 1.922.795a2.7 2.7 0 01.796 1.922c0 .726-.283 1.408-.796 1.921L28.808 40.264a2.695 2.695 0 01-1.92.795 2.696 2.696 0 01-1.921-.796l-7.222-7.222a2.697 2.697 0 01-.796-1.92 2.7 2.7 0 01.797-1.922 2.698 2.698 0 011.92-.796z"/></g><defs><clipPath id="clip0"><path fill="#fff" d="M0 0h61v61H0z"/></clipPath></defs></svg>