<svg width="61" height="61" viewBox="0 0 61 61" fill="none" xmlns="http://www.w3.org/2000/svg">
<g clip-path="url(#clip0)">
<path d="M53.8471 21.2429C54.3406 21.2429 54.7407 20.8429 54.7407 20.3493V11.7172C54.7407 9.95226 53.3649 8.4994 51.6085 8.40968C41.011 7.87007 35.3153 3.53613 32.8635 1.00083C32.2394 0.355412 31.3998 0 30.4993 0C29.5987 0 28.7591 0.355412 28.1353 1.00071C25.6833 3.53601 19.9875 7.86995 9.3898 8.40968C7.63359 8.4994 6.25781 9.95214 6.25781 11.7172V36.6307C6.25781 43.8058 10.1183 50.492 16.3329 54.0802L26.4423 59.9159C27.6937 60.6387 29.0963 61.0001 30.4994 61.0001C31.9021 61.0001 33.3051 60.6387 34.5562 59.916L44.6658 54.0804C50.8802 50.4922 54.7408 43.8059 54.7408 36.6308V24.5196C54.7408 24.026 54.3407 23.626 53.8472 23.626C53.3537 23.626 52.9536 24.026 52.9536 24.5196V36.6308C52.9536 43.1694 49.4355 49.2627 43.7722 52.5326L33.6625 58.3684C31.7114 59.4954 29.2872 59.4953 27.3359 58.3683L17.2264 52.5326C11.5631 49.2627 8.045 43.1694 8.045 36.6308V11.7172C8.045 10.9046 8.67576 10.2357 9.48083 10.1946C20.6907 9.62378 26.7849 4.96779 29.42 2.24316C29.7042 1.94923 30.0875 1.78731 30.4993 1.78731C30.911 1.78731 31.2943 1.94923 31.5786 2.24328C34.2135 4.96779 40.3077 9.62378 51.5174 10.1946C52.3227 10.2358 52.9535 10.9046 52.9535 11.7172V20.3493C52.9535 20.8429 53.3536 21.2429 53.8471 21.2429Z" fill="white"/>
<path d="M11.9659 23.6258C11.4724 23.6258 11.0723 24.0258 11.0723 24.5194V36.6306C11.0723 42.0908 14.01 47.1796 18.7393 49.9112L28.8492 55.7471C29.351 56.0365 29.9215 56.1895 30.499 56.1895C31.0765 56.1895 31.647 56.0365 32.1492 55.7468L42.259 49.9111C46.9881 47.1796 49.9259 42.0908 49.9259 36.6306V15.0104C49.9259 13.9554 49.1387 13.0615 48.0953 12.931C40.0805 11.9229 34.8081 8.87803 31.7952 6.50035C31.0321 5.89997 29.9661 5.89997 29.202 6.50118C26.1902 8.87803 20.9177 11.9229 12.9037 12.9309C11.8597 13.0615 11.0724 13.9554 11.0724 15.0104V20.3493C11.0724 20.8429 11.4725 21.2429 11.966 21.2429C12.4595 21.2429 12.8596 20.8429 12.8596 20.3493V15.0104C12.8596 14.8547 12.9737 14.7232 13.126 14.7043C21.5487 13.6448 27.1192 10.4217 30.3081 7.90508C30.4204 7.81655 30.5774 7.81644 30.6891 7.90425C33.879 10.4217 39.4495 13.6449 47.873 14.7044C48.0244 14.7232 48.1387 14.8549 48.1387 15.0104V36.6306C48.1387 41.4546 45.5432 45.9504 41.3654 48.3635L31.2562 54.199C30.7947 54.4652 30.2033 54.4649 29.7426 54.1993L19.6331 48.3636C15.4552 45.9504 12.8596 41.4547 12.8596 36.6306V24.5194C12.8595 24.0258 12.4595 23.6258 11.9659 23.6258Z" fill="white"/>
<path d="M19.6663 28.4032C20.392 28.4032 21.0741 28.6857 21.5872 29.1987L26.2565 33.8669C26.6056 34.216 27.1712 34.2157 27.5202 33.8669L32.6351 28.7519C32.9841 28.4028 32.9841 27.8371 32.6351 27.4882C32.2861 27.1393 31.7203 27.1393 31.3714 27.4882L26.8883 31.9714L22.851 27.9351C22.0005 27.0845 20.8696 26.6161 19.6664 26.6161C18.4633 26.6161 17.3324 27.0846 16.4819 27.935C15.6308 28.7861 15.1621 29.9174 15.1621 31.1206C15.1621 32.3241 15.6309 33.4551 16.4819 34.3053L23.7027 41.5262C24.5527 42.3776 25.684 42.8464 26.8885 42.8464C28.0921 42.8464 29.223 42.3775 30.0724 41.5268L44.5149 27.084C45.3662 26.2334 45.8351 25.1024 45.8351 23.8991C45.8351 22.6959 45.3663 21.5646 44.5153 20.7135C43.6648 19.8631 42.5339 19.3948 41.3307 19.3948C40.1276 19.3948 38.9967 19.8632 38.1462 20.7135L34.3204 24.5392C33.9715 24.8883 33.9715 25.454 34.3204 25.803C34.6694 26.1518 35.2352 26.1518 35.5841 25.803L39.4099 21.9772C39.9228 21.4643 40.6049 21.1819 41.3307 21.1819C42.0565 21.1819 42.7386 21.4643 43.2516 21.9773C43.7651 22.4908 44.048 23.1733 44.048 23.8991C44.048 24.6248 43.7652 25.3068 43.2516 25.82L28.8081 40.2636C28.2958 40.7767 27.6141 41.0594 26.8885 41.0594C26.162 41.0594 25.4798 40.7767 24.967 40.263L17.7453 33.0413C17.232 32.5284 16.9493 31.8463 16.9493 31.1206C16.9493 30.3947 17.2322 29.7123 17.7457 29.1987C18.2585 28.6857 18.9406 28.4032 19.6663 28.4032Z" fill="white"/>
</g>
<defs>
<clipPath id="clip0">
<rect width="61" height="61" fill="white"/>
</clipPath>
</defs>
</svg>
