<svg width="19" height="19" viewBox="0 0 19 19" fill="none" xmlns="http://www.w3.org/2000/svg">
<g clip-path="url(#clip0)">
<path d="M13.205 2.39875L6.87167 0.02375C6.77667 -0.00791667 6.68167 -0.00791667 6.58667 0.02375L0.253333 2.39875C0.102917 2.45417 0 2.60458 0 2.77083V7.86125C0 15.0813 6.57875 16.6012 6.64208 16.6171C6.67375 16.625 6.6975 16.625 6.72917 16.625C6.76083 16.625 6.78458 16.625 6.81625 16.6171C6.83208 16.6171 7.14083 16.5458 7.61583 16.3638C7.29917 15.5879 7.125 14.7408 7.125 13.8542C7.125 10.2758 9.9275 7.33875 13.4583 7.13292V2.77083C13.4583 2.60458 13.3554 2.45417 13.205 2.39875Z" fill="#B3B3B3"/>
<path d="M13.8548 8.70801C11.0175 8.70801 8.70898 11.0165 8.70898 13.8538C8.70898 16.6912 11.0175 18.9997 13.8548 18.9997C16.6922 18.9997 19.0007 16.6912 19.0007 13.8538C19.0007 11.0165 16.6922 8.70801 13.8548 8.70801ZM13.8548 10.2913C14.5507 10.2913 15.1951 10.4995 15.7437 10.8455L10.8465 15.7428C10.5005 15.1933 10.2923 14.5489 10.2923 13.8538C10.2923 11.8897 11.8907 10.2913 13.8548 10.2913ZM13.8548 17.4163C13.1589 17.4163 12.5145 17.2081 11.9659 16.8622L16.8639 11.9649C17.2099 12.5135 17.4181 13.158 17.4181 13.8538C17.4173 15.818 15.8189 17.4163 13.8548 17.4163Z" fill="#B3B3B3"/>
</g>
<defs>
<clipPath id="clip0">
<rect width="19" height="19" fill="white"/>
</clipPath>
</defs>
</svg>
