<svg width="22" height="22" viewBox="0 0 22 22" fill="none" xmlns="http://www.w3.org/2000/svg">
<path d="M12.8652 18.6055C12.8652 20.4801 14.3851 22 16.2598 22C18.1344 22 19.6543 20.4801 19.6543 18.6055C19.6543 16.7308 18.1344 15.2109 16.2598 15.2109C14.3851 15.2109 12.8652 16.7308 12.8652 18.6055ZM17.9141 17.9609V19.25H16.9043V20.2598H15.6152V19.25H14.6055V17.9609H15.6152V16.9512H16.9043V17.9609H17.9141Z" fill="#B3B3B3"/>
<path d="M12.9472 15.2937C13.8317 14.4091 15.0078 13.9219 16.259 13.9219C16.5374 13.9219 16.8124 13.9462 17.0811 13.9935C16.6284 11.3639 14.7858 9.2037 12.3392 8.29935C13.5358 7.47942 14.3224 6.10324 14.3224 4.54646C14.3224 2.03951 12.2829 0 9.77589 0C7.26894 0 5.22943 2.03951 5.22943 4.54646C5.22943 6.10307 6.01613 7.47942 7.21254 8.29935C4.38466 9.34486 2.36328 12.068 2.36328 15.2547V18.2451H11.589C11.6734 17.1298 12.1481 16.0928 12.9472 15.2937Z" fill="#B3B3B3"/>
</svg>
