<svg width="19" height="19" viewBox="0 0 19 19" fill="none" xmlns="http://www.w3.org/2000/svg">
<path d="M9.86918 11.3847C9.86918 8.57219 12.1573 6.2841 14.9697 6.2841C16.4314 6.2841 17.7512 6.90231 18.682 7.89071C18.9131 7.28453 19.022 6.63252 18.9963 5.96945C18.9487 4.74377 18.4445 3.59082 17.5767 2.72302C15.6821 0.828405 12.5994 0.828405 10.7048 2.72302L9.49998 3.92781L8.29519 2.72302C7.3774 1.80523 6.15714 1.2998 4.8592 1.2998C3.56127 1.2998 2.341 1.80523 1.42325 2.72302C0.505503 3.64081 0 4.86107 0 6.15901C0 7.45694 0.505466 8.67721 1.42181 9.59358L9.47104 17.7007L11.793 15.3722C10.6213 14.4368 9.86918 12.997 9.86918 11.3847Z" fill="#B3B3B3"/>
<path d="M14.9697 7.36035C12.7506 7.36035 10.9453 9.16568 10.9453 11.3847C10.9453 13.6038 12.7506 15.4092 14.9697 15.4092C17.1888 15.4092 18.9942 13.6038 18.9942 11.3847C18.9942 9.16568 17.1888 7.36035 14.9697 7.36035ZM16.4827 11.9414H15.5264V12.8977H14.4131V11.9414H13.4567V10.8281H14.4131V9.87176H15.5264V10.8281H16.4827V11.9414Z" fill="#B3B3B3"/>
</svg>
