<svg width="19" height="19" viewBox="0 0 19 19" fill="none" xmlns="http://www.w3.org/2000/svg">
<g clip-path="url(#clip0)">
<path d="M18.993 6.20325C18.8582 3.33956 16.6413 1.07978 13.9923 1.05859C13.9793 1.05859 13.9668 1.05859 13.9537 1.05859C11.5059 1.05859 10.1415 2.85517 9.50001 4.06798C8.85857 2.85521 7.49417 1.05859 5.04632 1.05859C5.03326 1.05859 5.02024 1.05859 5.00773 1.05859C2.35875 1.07982 0.141801 3.33956 0.00698259 6.20325C-0.158822 9.71491 2.64305 12.0714 6.82821 15.6374C7.5528 16.2549 8.32364 16.9116 9.13363 17.6205L9.50001 17.9412L9.86639 17.6205C10.6763 16.9116 11.4472 16.255 12.1718 15.6374C16.357 12.0714 19.1588 9.71491 18.993 6.20325Z" fill="#B3B3B3"/>
</g>
<defs>
<clipPath id="clip0">
<rect width="19" height="19" fill="white"/>
</clipPath>
</defs>
</svg>
