<svg width="20" height="20" viewBox="0 0 20 20" fill="none" xmlns="http://www.w3.org/2000/svg">
<g clip-path="url(#clip0)">
<path d="M6.06656 2.23242C4.05363 2.23242 2.41602 3.96875 2.41602 6.10297C2.41602 8.23719 4.05363 9.97352 6.06656 9.97352C8.07949 9.97352 9.71715 8.23719 9.71715 6.10297C9.71715 3.96875 8.07953 2.23242 6.06656 2.23242Z" fill="#B3B3B3"/>
<path d="M14.3676 2.78613C14.3594 2.78613 14.351 2.78617 14.3428 2.78621C13.498 2.7932 12.7089 3.14988 12.121 3.79063C11.5433 4.42004 11.2292 5.25039 11.2365 6.12867C11.2437 7.00695 11.5715 7.83199 12.1594 8.45184C12.752 9.07648 13.537 9.41953 14.3723 9.41953C14.3807 9.41953 14.3891 9.41949 14.3976 9.41945C15.2423 9.41246 16.0314 9.05574 16.6194 8.41504C17.197 7.78562 17.5111 6.95527 17.5039 6.07695C17.4889 4.25687 16.0844 2.78613 14.3676 2.78613Z" fill="#B3B3B3"/>
<path d="M14.5207 10.4189H14.2176C12.8059 10.4189 11.5176 10.9557 10.5449 11.8354C10.7883 12.0221 11.0199 12.2256 11.2395 12.4451C11.8871 13.0928 12.3957 13.8475 12.7512 14.6881C13.0715 15.4451 13.2543 16.2428 13.2969 17.0643H19.9996V15.8975C19.9996 12.8768 17.5418 10.4189 14.5207 10.4189Z" fill="#B3B3B3"/>
<path d="M12.123 16.4867C12.0125 14.7059 11.1098 13.1395 9.7625 12.1355C8.78242 11.4051 7.5668 10.9727 6.25 10.9727H5.88516C2.63477 10.9727 0 13.6074 0 16.8578V17.5563H12.1348V16.8578C12.1348 16.7332 12.1309 16.6094 12.123 16.4867Z" fill="#B3B3B3"/>
</g>
<defs>
<clipPath id="clip0">
<rect width="20" height="20" fill="white"/>
</clipPath>
</defs>
</svg>
